<svg xmlns="http://www.w3.org/2000/svg" width="1920" height="56" viewBox="0 0 1920 56" fill="none">
<rect width="1920" height="56" fill="#0096AD"/>
<rect width="1920" height="56" fill="#0096AD"/>
<path d="M4.5 46.777C34.0539 34.0249 138.469 24.0765 193.909 24.7033C263.207 25.4867 348.599 50.6942 413.094 46.777C464.689 43.6432 492.438 30.7604 499.863 24.7108C503.96 21.9184 509.52 14.2059 503.374 9.31039C500.74 7.62246 496.351 6.74138 491.961 11.9441C490.644 12.8891 490.644 15.8932 492.4 15.8932C494.156 15.8932 494.595 12.4501 489.767 9.31039C487.96 8.13549 482.043 7.18261 479.671 11.1332C476.285 16.7715 479.671 25.1799 493.717 30.3815C501.472 33.4543 535.418 38.7854 560 30.3815" stroke="white"/>
<path d="M1919 47.5C1881.85 20.2679 1736 21.3859 1659.5 32.4166C1638.22 35.4857 1549.5 50.5291 1466 39.0291C1421.5 32.4166 1405 29.4996 1411 15.9964C1415 10.0003 1418.69 12.7371 1420 16.0003C1422 20.9984 1420 27 1409.5 29.9989C1406.9 30.7427 1399.87 33.7524 1388.89 32.4166C1388.78 32.4166 1372.78 30.4776 1362 21.3859" stroke="white" stroke-miterlimit="10" stroke-linecap="round" stroke-linejoin="round"/>
<path d="M379.852 25V33" stroke="white" stroke-miterlimit="10" stroke-linecap="round" stroke-linejoin="round"/>
<path d="M384 28.8549H376" stroke="white" stroke-miterlimit="10" stroke-linecap="round" stroke-linejoin="round"/>
<path d="M1531.85 22V30" stroke="white" stroke-miterlimit="10" stroke-linecap="round" stroke-linejoin="round"/>
<path d="M1536 25.8549H1528" stroke="white" stroke-miterlimit="10" stroke-linecap="round" stroke-linejoin="round"/>
<path d="M1748.85 36V44" stroke="white" stroke-miterlimit="10" stroke-linecap="round" stroke-linejoin="round"/>
<path d="M1753 39.8549H1745" stroke="white" stroke-miterlimit="10" stroke-linecap="round" stroke-linejoin="round"/>
<path d="M110.852 34V42" stroke="white" stroke-miterlimit="10" stroke-linecap="round" stroke-linejoin="round"/>
<path d="M115 37.8549H107" stroke="white" stroke-miterlimit="10" stroke-linecap="round" stroke-linejoin="round"/>
</svg>